<svg width="606" height="590" viewBox="0 0 606 590" fill="none" xmlns="http://www.w3.org/2000/svg">
<path d="M251.553 33.8267H324.92C328.947 33.8267 332.95 34.4346 336.795 35.6299L459.803 73.8706C474.467 78.4292 485.226 90.9801 487.491 106.168L552.752 543.837C555.163 560.007 544.922 575.371 529.069 579.367C518.111 582.129 506.509 578.868 498.594 570.801L182.183 248.32C172.17 238.115 168.365 223.341 172.203 209.568L213.021 63.0893C217.841 45.7922 233.596 33.8267 251.553 33.8267Z" stroke="white" stroke-width="4"/>
<path d="M272.553 33.8267H345.92C349.947 33.8267 353.95 34.4346 357.795 35.6299L480.803 73.8706C495.467 78.4292 506.226 90.9801 508.491 106.168L573.752 543.837C576.163 560.007 565.922 575.371 550.069 579.367C539.111 582.129 527.509 578.868 519.594 570.801L203.183 248.32C193.17 238.115 189.365 223.341 193.203 209.568L234.021 63.0893C238.841 45.7922 254.596 33.8267 272.553 33.8267Z" stroke="white" stroke-width="4"/>
<path d="M230.553 33.8267H303.92C307.947 33.8267 311.95 34.4346 315.795 35.6299L438.803 73.8706C453.467 78.4292 464.226 90.9801 466.491 106.168L531.752 543.837C534.163 560.007 523.922 575.371 508.069 579.367C497.111 582.129 485.509 578.868 477.594 570.801L161.183 248.32C151.17 238.115 147.365 223.341 151.203 209.568L192.021 63.0893C196.841 45.7922 212.596 33.8267 230.553 33.8267Z" stroke="white" stroke-width="4"/>
<path d="M148.819 126.051C151.135 122.086 156.865 122.086 159.181 126.051L282.094 336.441C284.431 340.441 281.546 345.468 276.914 345.468H31.0863C26.4538 345.468 23.5688 340.441 25.9056 336.441L148.819 126.051Z" fill="#FFE463"/>
<rect x="320" width="226" height="224.279" rx="10" fill="#1FA7FF"/>
<ellipse cx="504" cy="489.109" rx="102" ry="100.625" fill="#FF5F5F"/>
</svg>
